PathFileType	3	(X/Y/Z)	squats_1__view1_aligned.trc
DataRate	CameraRate	NumFrames	NumMarkers	Units	OrigDataRate	OrigDataStartFrame	OrigNumFrames
100.0	100.0	10	19	mm	100.0	1588	1660
Frame#	Time	pelvis			neck			head			hip_left			hip_right			knee_left			knee_right			ankle_left			ankle_right			heel_left			heel_right			toe_left			toe_right			shoulder_left			shoulder_right			elbow_left			elbow_right			wrist_left			wrist_right			
		X1	Y1	Z1	X2	Y2	Z2	X3	Y3	Z3	X4	Y4	Z4	X5	Y5	Z5	X6	Y6	Z6	X7	Y7	Z7	X8	Y8	Z8	X9	Y9	Z9	X10	Y10	Z10	X11	Y11	Z11	X12	Y12	Z12	X13	Y13	Z13	X14	Y14	Z14	X15	Y15	Z15	X16	Y16	Z16	X17	Y17	Z17	X18	Y18	Z18	X19	Y19	Z19	
1588	15.87000	180.519821	379.971288	31.204594	170.250740	798.139006	-288.233702	184.602575	890.486374	-439.659181	92.229900	381.123490	37.087130	268.809781	378.819086	25.322026	-40.040761	357.640455	-366.841555	381.072499	359.702491	-385.590266	76.390481	184.379359	-26.883775	334.251107	131.763288	-62.790484	92.696683	164.987374	27.814681	330.376539	108.730993	-5.712245	38.427755	79.638831	-167.766087	317.504786	26.879254	-212.624818	-14.121088	782.919376	-223.478862	355.843556	739.478208	-251.579096	-189.111736	557.521872	-164.488912	435.969084	457.248193	-245.644545	-259.033782	399.179704	-361.948632	427.885187	277.863142	-439.095163
1589	15.88000	181.188179	378.725790	30.277534	171.129963	796.602748	-289.022219	185.463896	888.865220	-440.483143	92.831743	379.829285	36.178013	269.544672	377.622293	24.377008	-39.058672	357.174314	-368.078877	381.654553	359.491366	-386.771957	77.202961	184.318359	-27.959734	335.108675	131.878024	-63.872608	93.442131	164.974409	26.769787	331.280547	108.945225	-6.765256	39.533140	79.571485	-168.874461	318.208505	26.702336	-213.438771	-13.278059	781.535045	-224.286549	356.686400	737.717347	-252.422284	-187.853019	555.542563	-166.003934	436.347503	455.256824	-246.547830	-256.445680	397.840715	-364.564719	428.115475	275.779013	-440.040647
1590	15.89000	181.856536	377.480291	29.350474	172.009187	795.066490	-289.810736	186.325217	887.244065	-441.307105	93.433585	378.535080	35.268896	270.279563	376.425501	23.431990	-38.076584	356.708172	-369.316199	382.236607	359.280241	-387.953649	78.015441	184.257358	-29.035694	335.966244	131.992761	-64.954732	94.187579	164.961444	25.724893	332.184556	109.159457	-7.818268	40.638525	79.504139	-169.982835	318.912223	26.525417	-214.252724	-12.435030	780.150714	-225.094236	357.529245	735.956486	-253.265472	-186.594303	553.563255	-167.518956	436.725923	453.265456	-247.451116	-253.857577	396.501726	-367.180806	428.345763	273.694883	-440.986131
1591	15.90000	182.524893	376.234793	28.423414	172.888410	793.530232	-290.599253	187.186539	885.622910	-442.131067	94.035428	377.240875	34.359778	271.014454	375.228708	22.486972	-37.094495	356.242031	-370.553520	382.818661	359.069116	-389.135341	78.827921	184.196358	-30.111653	336.823812	132.107497	-66.036856	94.933027	164.948479	24.679998	333.088564	109.373689	-8.871279	41.743910	79.436793	-171.091210	319.615942	26.348499	-215.066677	-11.592001	778.766382	-225.901922	358.372089	734.195625	-254.108661	-185.335586	551.583946	-169.033978	437.104342	451.274088	-248.354401	-251.269475	395.162736	-369.796892	428.576051	271.610753	-441.931615
1592	15.91000	183.193250	374.989294	27.496355	173.767633	791.993974	-291.387770	188.047860	884.001756	-442.955029	94.637271	375.946671	33.450661	271.749345	374.031915	21.541954	-36.112407	355.775890	-371.790842	383.400716	358.857990	-390.317033	79.640401	184.135358	-31.187612	337.681381	132.222233	-67.118980	95.678475	164.935514	23.635104	333.992573	109.587920	-9.924291	42.849295	79.369447	-172.199584	320.319660	26.171581	-215.880630	-10.748972	777.382051	-226.709609	359.214934	732.434763	-254.951849	-184.076870	549.604637	-170.549000	437.482761	449.282719	-249.257687	-248.681373	393.823747	-372.412979	428.806339	269.526623	-442.877099
1593	15.92000	183.861608	373.743796	26.569295	174.646857	790.457716	-292.176287	188.909181	882.380601	-443.778990	95.239113	374.652466	32.541544	272.484237	372.835123	20.596936	-35.130318	355.309748	-373.028164	383.982770	358.646865	-391.498724	80.452881	184.074358	-32.263572	338.538949	132.336969	-68.201103	96.423922	164.922548	22.590210	334.896581	109.802152	-10.977302	43.954681	79.302102	-173.307958	321.023379	25.994663	-216.694582	-9.905943	775.997720	-227.517296	360.057778	730.673902	-255.795037	-182.818154	547.625329	-172.064022	437.861180	447.291351	-250.160973	-246.093270	392.484758	-375.029065	429.036627	267.442494	-443.822582
1594	15.93000	184.529965	372.498297	25.642235	175.526080	788.921458	-292.964804	189.770502	880.759446	-444.602952	95.840956	373.358261	31.632427	273.219128	371.638330	19.651918	-34.148230	354.843607	-374.265485	384.564824	358.435740	-392.680416	81.265361	184.013357	-33.339531	339.396517	132.451706	-69.283227	97.169370	164.909583	21.545315	335.800590	110.016384	-12.030314	45.060066	79.234756	-174.416332	321.727097	25.817744	-217.508535	-9.062914	774.613389	-228.324983	360.900623	728.913041	-256.638225	-181.559437	545.646020	-173.579044	438.239599	445.299983	-251.064258	-243.505168	391.145768	-377.645152	429.266915	265.358364	-444.768066
1595	15.94000	185.198322	371.252799	24.715175	176.405303	787.385200	-293.753321	190.631823	879.138292	-445.426914	96.442798	372.064057	30.723309	273.954019	370.441538	18.706900	-33.166141	354.377466	-375.502807	385.146878	358.224615	-393.862108	82.077841	183.952357	-34.415490	340.254086	132.566442	-70.365351	97.914818	164.896618	20.500421	336.704598	110.230616	-13.083325	46.165451	79.167410	-175.524707	322.430816	25.640826	-218.322488	-8.219885	773.229057	-229.132669	361.743467	727.152180	-257.481413	-180.300721	543.666711	-175.094066	438.618019	443.308614	-251.967544	-240.917066	389.806779	-380.261239	429.497203	263.274234	-445.713550
1596	15.95000	185.866680	370.007300	23.788115	177.284527	785.848942	-294.541838	191.493145	877.517137	-446.250876	97.044641	370.769852	29.814192	274.688910	369.244745	17.761883	-32.184053	353.911324	-376.740129	385.728933	358.013490	-395.043800	82.890321	183.891357	-35.491450	341.111654	132.681178	-71.447475	98.660266	164.883653	19.455527	337.608607	110.444848	-14.136337	47.270836	79.100064	-176.633081	323.134534	25.463908	-219.136441	-7.376856	771.844726	-229.940356	362.586312	725.391319	-258.324601	-179.042005	541.687402	-176.609089	438.996438	441.317246	-252.870830	-238.328963	388.467790	-382.877325	429.727491	261.190104	-446.659034
1597	15.96000	187.843962	371.723199	21.943131	179.806600	787.148128	-297.276623	194.517403	878.884848	-448.911985	99.167892	372.477334	27.927697	276.520188	370.969062	15.958443	-29.679771	354.463493	-378.968278	386.577004	357.844167	-396.883791	84.370486	183.508806	-37.895856	342.243001	132.949391	-72.794679	100.070605	164.415116	17.037130	338.788327	110.835826	-15.433543	48.214680	78.823062	-179.005760	324.118927	25.326710	-220.173308	-4.960910	773.257024	-233.191284	364.830602	726.605157	-260.671131	-175.968004	542.770670	-179.595140	441.183709	442.486188	-255.124231	-233.743369	389.900623	-386.704119	432.448502	262.848578	-449.477603
